<svg width="40" height="40" viewBox="0 0 40 40" fill="none" xmlns="http://www.w3.org/2000/svg">
<path d="M19.9966 0C8.97259 0 0 9.03488 0 20.1355C0 30.0169 7.02203 38.3678 16.6941 39.9932C16.7278 40 16.7681 40 16.8017 40C16.9632 40 17.1111 39.9458 17.2389 39.8375C17.3869 39.7088 17.4744 39.5191 17.4744 39.3227V25.6688C17.4744 25.2963 17.1717 24.9915 16.8017 24.9915H12.5979V20.8127H16.8017C17.1717 20.8127 17.4744 20.508 17.4744 20.1355V15.1168C17.4744 11.6085 20.3128 8.75042 23.8036 8.75042H27.5837C28.0141 8.75042 28.3639 9.10261 28.3639 9.53607V13.0037H25.9156C24.3013 13.0037 22.983 14.3244 22.983 15.9567V20.1355C22.983 20.508 23.2857 20.8127 23.6556 20.8127H28.2361L27.5029 24.9915H23.6422C23.2722 24.9915 22.9696 25.2963 22.9696 25.6688L22.9292 39.2482C22.9292 39.4514 23.0166 39.641 23.1713 39.7697C23.326 39.8984 23.5278 39.9526 23.7296 39.912C33.1596 38.1239 40 29.8002 40 20.1287C39.9933 9.03488 31.0207 0 19.9966 0ZM24.2744 38.4152L24.3148 26.3461H28.0679C28.3975 26.3461 28.6733 26.109 28.7338 25.784L29.7024 20.2506C29.736 20.0542 29.6822 19.851 29.5544 19.6952C29.4266 19.5395 29.2383 19.4514 29.0365 19.4514H24.3282V15.9499C24.3282 15.0694 25.0412 14.3515 25.9156 14.3515H29.0365C29.4064 14.3515 29.7091 14.0467 29.7091 13.6742V9.52929C29.7091 8.35083 28.754 7.3891 27.5837 7.3891H23.8036C19.5729 7.3891 16.1291 10.85 16.1291 15.1101V19.4514H11.9253C11.5554 19.4514 11.2527 19.7562 11.2527 20.1287V25.662C11.2527 26.0345 11.5554 26.3393 11.9253 26.3393H16.1291V38.5032C7.51303 36.6881 1.34522 29.0891 1.34522 20.1355C1.34522 9.77989 9.71246 1.35455 19.9966 1.35455C30.2808 1.35455 38.6481 9.77989 38.6481 20.1355C38.6481 28.8791 32.6484 36.4375 24.2744 38.4152Z" fill="black"/>
</svg>
