<svg width="40" height="40" viewBox="0 0 40 40" fill="none" xmlns="http://www.w3.org/2000/svg">
<g clip-path="url(#clip0_62_454)">
<path d="M19.4518 12.053C19.4532 11.8565 19.6135 11.6984 19.8099 11.6997C21.8742 11.7141 23.6191 12.4013 25.02 13.767C26.4326 15.1441 27.1313 17.0189 27.1489 19.3474C27.1504 19.5438 26.9924 19.7043 26.7959 19.7058C26.5995 19.7073 26.4391 19.5492 26.4376 19.3528C26.4209 17.1709 25.7719 15.4935 24.5234 14.2764C23.2633 13.048 21.6986 12.4243 19.805 12.4111C19.6086 12.4097 19.4504 12.2494 19.4518 12.053ZM21.8139 22.4822C21.5446 22.8139 21.0446 22.7716 21.0446 22.7716C17.3901 21.8387 16.4121 18.137 16.4121 18.137C16.4121 18.137 16.3682 17.637 16.7015 17.3678L17.3619 16.8429C17.6893 16.5905 17.8982 15.9783 17.5649 15.3804C17.3092 14.9315 17.0312 14.4959 16.7319 14.0749C16.4412 13.6778 15.7639 12.8647 15.7614 12.8622C15.4349 12.477 14.9547 12.3875 14.4484 12.6512C14.4484 12.6512 14.4447 12.6519 14.4427 12.6525C14.4408 12.6531 14.4378 12.6537 14.4378 12.6537C13.9342 12.9439 13.4801 13.3125 13.0926 13.7457C13.0913 13.7484 13.0899 13.7496 13.0886 13.751C13.0886 13.751 13.0862 13.7532 13.085 13.7555C12.7722 14.133 12.5932 14.503 12.5479 14.8656C12.5384 14.919 12.5352 14.9735 12.5382 15.0276C12.5364 15.1877 12.5609 15.347 12.6103 15.4994L12.6276 15.5112C12.7854 16.0715 13.1804 17.0049 14.0386 18.561C14.5295 19.4611 15.0957 20.318 15.731 21.1227C16.0494 21.526 16.3906 21.9108 16.753 22.2751C16.7574 22.2794 16.7617 22.2837 16.7659 22.288C16.7746 22.2968 16.7831 22.3054 16.7919 22.3138L16.9083 22.4303C17.2725 22.7927 17.6573 23.134 18.0606 23.4523C18.8654 24.0877 19.7224 24.6539 20.6227 25.1447C22.1784 26.003 23.1126 26.3979 23.6721 26.5557L23.6839 26.573C23.8362 26.6226 23.9955 26.6471 24.1557 26.6455C24.2099 26.6482 24.2642 26.6448 24.3177 26.6355C24.6809 26.5924 25.0506 26.4136 25.427 26.0991C25.4316 26.0966 25.4316 26.094 25.4367 26.0915C25.8699 25.704 26.2387 25.2499 26.5291 24.7464L26.5299 24.7424C26.5305 24.7401 26.5313 24.7375 26.5313 24.7358C26.7949 24.2295 26.7055 23.7493 26.3182 23.4223C26.3182 23.4223 26.286 23.3963 26.2326 23.3522C26.013 23.1713 25.4248 22.6866 25.1054 22.4518C24.6849 22.1526 24.2496 21.8746 23.8012 21.6189C23.2029 21.2855 22.5919 21.4944 22.3388 21.8219L21.8139 22.4822Z" fill="black"/>
<path d="M20.4607 13.5459C20.2648 13.5316 20.0944 13.6787 20.0801 13.8746C20.0657 14.0706 20.2129 14.2411 20.4088 14.2554C21.7631 14.3545 22.7803 14.8078 23.5079 15.602C24.2377 16.3995 24.5959 17.3936 24.5696 18.6116C24.5653 18.808 24.7211 18.9706 24.9175 18.9749C25.1139 18.9791 25.2766 18.8234 25.2808 18.627C25.3106 17.2458 24.899 16.0682 24.0327 15.1217C23.157 14.1657 21.9545 13.6552 20.4607 13.5459Z" fill="black"/>
<path d="M20.6196 15.7908C20.6299 15.5946 20.7972 15.4439 20.9934 15.4541C21.7274 15.4924 22.3381 15.7145 22.773 16.1643C23.2062 16.6122 23.4186 17.238 23.4559 17.9896C23.4656 18.1859 23.3145 18.3528 23.1183 18.3625C22.9221 18.3723 22.7551 18.2211 22.7454 18.0249C22.7135 17.3815 22.537 16.9435 22.2616 16.6589C21.988 16.3759 21.5703 16.1966 20.9563 16.1645C20.7601 16.1543 20.6094 15.9869 20.6196 15.7908Z" fill="black"/>
<path fill-rule="evenodd" clip-rule="evenodd" d="M30.3236 9.40909C29.6248 8.76434 26.8012 6.71454 20.5116 6.68669C20.5116 6.68669 13.0946 6.23942 9.47891 9.55592C7.46622 11.5691 6.75818 14.5147 6.6835 18.1667C6.60882 21.8186 6.51218 28.6626 13.1093 30.5183H13.1157L13.1115 33.35C13.1115 33.35 13.0692 34.4964 13.8242 34.7303C14.5862 34.9668 15.0855 34.3992 15.7366 33.6588C15.8656 33.5121 16.0007 33.3586 16.1448 33.2032C16.6233 32.6876 17.2841 31.9302 17.782 31.3513C22.2939 31.731 25.764 30.8631 26.1581 30.7348C26.2394 30.7084 26.3546 30.6792 26.4974 30.6428C27.9551 30.2722 32.2989 29.1677 33.0624 22.9355C33.9278 15.8818 32.6439 11.4201 30.3236 9.40909ZM31.0882 22.4296C30.451 27.5746 26.9978 28.3781 25.7536 28.6676C25.6161 28.6995 25.5053 28.7253 25.4286 28.7499C25.1007 28.8554 22.053 29.6137 18.2204 29.3634C18.2204 29.3634 15.3647 32.8087 14.4727 33.7045C14.3334 33.8446 14.1697 33.9011 14.0604 33.8733C13.9068 33.8357 13.8647 33.6538 13.8663 33.388C13.8688 33.0083 13.8908 28.6824 13.8908 28.6824C8.49449 27.1843 8.62041 21.6883 8.69182 18.569C8.69424 18.4625 8.69666 18.3585 8.69874 18.2578C8.76199 15.2075 9.33499 12.7088 11.0372 11.0281C14.0954 8.25802 20.3956 8.67192 20.3956 8.67192C25.7159 8.69517 28.2653 10.2973 28.8565 10.834C30.8194 12.5147 31.8194 16.5363 31.0882 22.4279V22.4296Z" fill="black"/>
<path d="M20 40C8.97167 40 0 31.0283 0 20C0 8.97167 8.97167 0 20 0C31.0283 0 40 8.97167 40 20C40 31.0283 31.0283 40 20 40ZM20 1.66667C9.89167 1.66667 1.66667 9.89167 1.66667 20C1.66667 30.1083 9.89167 38.3333 20 38.3333C30.1083 38.3333 38.3333 30.1083 38.3333 20C38.3333 9.89167 30.1083 1.66667 20 1.66667Z" fill="black"/>
</g>
<defs>
<clipPath id="clip0_62_454">
<rect width="40" height="40" fill="white"/>
</clipPath>
</defs>
</svg>
