<svg width="40" height="40" viewBox="0 0 40 40" fill="none" xmlns="http://www.w3.org/2000/svg">
<path d="M20 40C8.97167 40 0 31.0283 0 20C0 8.97167 8.97167 0 20 0C31.0283 0 40 8.97167 40 20C40 31.0283 31.0283 40 20 40ZM20 1.66667C9.89167 1.66667 1.66667 9.89167 1.66667 20C1.66667 30.1083 9.89167 38.3333 20 38.3333C30.1083 38.3333 38.3333 30.1083 38.3333 20C38.3333 9.89167 30.1083 1.66667 20 1.66667Z" fill="black"/>
<path d="M24.8612 30.6946H15.139C13.5919 30.6946 12.1082 30.08 11.0142 28.986C9.92025 27.892 9.30566 26.4083 9.30566 24.8612V15.139C9.30566 13.5919 9.92025 12.1082 11.0142 11.0142C12.1082 9.92025 13.5919 9.30566 15.139 9.30566H24.8612C26.4083 9.30566 27.892 9.92025 28.986 11.0142C30.08 12.1082 30.6946 13.5919 30.6946 15.139V24.8612C30.6946 26.4083 30.08 27.892 28.986 28.986C27.892 30.08 26.4083 30.6946 24.8612 30.6946ZM15.139 11.2501C14.1076 11.2501 13.1184 11.6598 12.3891 12.3891C11.6598 13.1184 11.2501 14.1076 11.2501 15.139V24.8612C11.2501 25.8926 11.6598 26.8818 12.3891 27.6111C13.1184 28.3404 14.1076 28.7501 15.139 28.7501H24.8612C25.8926 28.7501 26.8818 28.3404 27.6111 27.6111C28.3404 26.8818 28.7501 25.8926 28.7501 24.8612V15.139C28.7501 14.1076 28.3404 13.1184 27.6111 12.3891C26.8818 11.6598 25.8926 11.2501 24.8612 11.2501H15.139Z" fill="black"/>
<path d="M19.9994 25.8337C18.8456 25.8337 17.7178 25.4915 16.7585 24.8506C15.7992 24.2096 15.0516 23.2986 14.6101 22.2326C14.1685 21.1667 14.053 19.9939 14.2781 18.8623C14.5032 17.7307 15.0588 16.6913 15.8746 15.8755C16.6904 15.0597 17.7298 14.5042 18.8613 14.2791C19.9929 14.054 21.1658 14.1695 22.2317 14.611C23.2976 15.0525 24.2086 15.8002 24.8496 16.7595C25.4906 17.7188 25.8327 18.8466 25.8327 20.0003C25.8327 21.5474 25.2181 23.0312 24.1241 24.1251C23.0302 25.2191 21.5464 25.8337 19.9994 25.8337ZM19.9994 16.1114C19.2302 16.1114 18.4783 16.3395 17.8388 16.7668C17.1993 17.1942 16.7008 17.8015 16.4065 18.5121C16.1121 19.2227 16.0351 20.0046 16.1852 20.759C16.3352 21.5134 16.7056 22.2063 17.2495 22.7502C17.7934 23.2941 18.4863 23.6644 19.2407 23.8145C19.995 23.9645 20.777 23.8875 21.4876 23.5932C22.1982 23.2989 22.8055 22.8004 23.2328 22.1609C23.6602 21.5214 23.8882 20.7695 23.8882 20.0003C23.8882 18.9689 23.4785 17.9798 22.7492 17.2505C22.0199 16.5212 21.0307 16.1114 19.9994 16.1114Z" fill="black"/>
<path d="M25.8326 14.1666C26.3695 14.1666 26.8048 13.7313 26.8048 13.1944C26.8048 12.6574 26.3695 12.2222 25.8326 12.2222C25.2956 12.2222 24.8604 12.6574 24.8604 13.1944C24.8604 13.7313 25.2956 14.1666 25.8326 14.1666Z" fill="black"/>
</svg>
