<svg width="40" height="40" viewBox="0 0 40 40" fill="none" xmlns="http://www.w3.org/2000/svg">
<g clip-path="url(#clip0_62_440)">
<path d="M19.9997 0.833514C16.5237 0.833863 13.1133 1.77947 10.1334 3.56911C7.15356 5.35875 4.71648 7.92505 3.08304 10.9933C1.4496 14.0616 0.681303 17.5163 0.860383 20.9876C1.03946 24.459 2.15918 27.8163 4.09967 30.7002L0.833008 39.1668L9.54967 36.0502C12.0496 37.682 14.8961 38.7072 17.8623 39.0443C20.8285 39.3813 23.8325 39.0208 26.6348 37.9915C29.437 36.9622 31.9601 35.2925 34.0029 33.1156C36.0457 30.9386 37.5517 28.3146 38.401 25.4526C39.2502 22.5906 39.4192 19.5698 38.8944 16.631C38.3697 13.6921 37.1657 10.9165 35.3784 8.52532C33.5911 6.13413 31.27 4.19348 28.6 2.85807C25.93 1.52265 22.985 0.82938 19.9997 0.833514Z" stroke="black" stroke-linecap="round" stroke-linejoin="round"/>
<path d="M15.8332 24.1668C17.9999 26.3335 22.7832 29.1668 24.9999 29.1668C25.9723 29.1769 26.9182 28.8505 27.6775 28.243C28.4369 27.6356 28.9629 26.7843 29.1666 25.8335V24.1668C29.1666 24.1668 27.1166 23.1668 25.8332 22.5002C24.5499 21.8335 22.4999 24.1668 22.4999 24.1668C20.9401 23.6587 19.5156 22.804 18.3332 21.6668C17.1961 20.4844 16.3414 19.06 15.8332 17.5002C15.8332 17.5002 18.1666 15.4502 17.4999 14.1668C16.8332 12.8835 15.8332 10.8335 15.8332 10.8335H14.1666C13.2157 11.0372 12.3645 11.5632 11.757 12.3225C11.1495 13.0818 10.8232 14.0278 10.8332 15.0002C10.8332 17.2168 13.6666 22.0002 15.8332 24.1668Z" stroke="black" stroke-linecap="round" stroke-linejoin="round"/>
</g>
<defs>
<clipPath id="clip0_62_440">
<rect width="40" height="40" fill="white"/>
</clipPath>
</defs>
</svg>
