<svg width="40" height="40" viewBox="0 0 40 40" fill="none" xmlns="http://www.w3.org/2000/svg">
<g clip-path="url(#clip0_62_444)">
<path d="M20 40C8.97167 40 0 31.0283 0 20C0 8.97167 8.97167 0 20 0C31.0283 0 40 8.97167 40 20C40 31.0283 31.0283 40 20 40ZM20 1.66667C9.89167 1.66667 1.66667 9.89167 1.66667 20C1.66667 30.1083 9.89167 38.3333 20 38.3333C30.1083 38.3333 38.3333 30.1083 38.3333 20C38.3333 9.89167 30.1083 1.66667 20 1.66667Z" fill="black"/>
<path d="M15.8329 30C15.7263 30 15.6163 29.98 15.5146 29.9367C15.2029 29.8084 14.9996 29.5034 14.9996 29.1667V24.1667C14.9996 23.9451 15.0879 23.7334 15.2429 23.5767L19.1763 19.6434L12.9113 23.2217C12.6429 23.375 12.3129 23.3667 12.0496 23.2001L7.04959 20.0117C6.78459 19.8434 6.63792 19.54 6.66792 19.2284C6.69959 18.9167 6.90292 18.6484 7.19292 18.5334L28.8596 10.0551C29.1446 9.94838 29.4596 9.99672 29.6929 10.1884C29.9279 10.3801 30.0379 10.6834 29.9846 10.9817L26.6513 29.3151C26.6046 29.5734 26.4379 29.7951 26.2029 29.9117C25.9679 30.0284 25.6913 30.0284 25.4579 29.9117L19.3279 26.8467L16.4196 29.7551C16.2629 29.9151 16.0496 30 15.8329 30ZM19.1663 25.0001C19.2929 25.0001 19.4196 25.0284 19.5396 25.0884L25.2113 27.925L28.0796 12.1534L9.32959 19.4901L12.5246 21.5267L23.7529 15.1101C24.1163 14.905 24.5763 14.9967 24.8296 15.3267C25.0829 15.6584 25.0513 16.1267 24.7563 16.4217L16.6663 24.5117V27.155L18.5763 25.2451C18.7363 25.0834 18.9496 25.0001 19.1663 25.0001Z" fill="black"/>
</g>
<defs>
<clipPath id="clip0_62_444">
<rect width="40" height="40" fill="white"/>
</clipPath>
</defs>
</svg>
